<?xml version="1.0" encoding="UTF-8"?>
<!DOCTYPE svg PUBLIC "-//W3C//DTD SVG 1.1//EN" "http://www.w3.org/Graphics/SVG/1.1/DTD/svg11.dtd">
<!-- Creator: CorelDRAW X6 -->
<svg xmlns="http://www.w3.org/2000/svg" xml:space="preserve" width="100mm" height="20mm" version="1.1" style="shape-rendering:geometricPrecision; text-rendering:geometricPrecision; image-rendering:optimizeQuality; fill-rule:evenodd; clip-rule:evenodd"
viewBox="0 0 10000 2000"
 xmlns:xlink="http://www.w3.org/1999/xlink">
 <defs>
  <style type="text/css">
   <![CDATA[
    .fil2 {fill:none}
    .fil1 {fill:#FEFEFE}
    .fil0 {fill:#457B9B}
    .fil4 {fill:#FEFEFE;fill-rule:nonzero}
    .fil3 {fill:#457B9B;fill-rule:nonzero}
   ]]>
  </style>
 </defs>
 <g id="Слой_x0020_1">
  <metadata id="CorelCorpID_0Corel-Layer"/>
  <g id="_601166000">
   <polygon class="fil0" points="56,638 56,638 614,1371 925,1215 56,638 "/>
   <polygon class="fil0" points="1054,1706 665,1652 622,1415 954,1259 "/>
   <polygon class="fil0" points="960,1897 486,1976 658,1694 1067,1756 "/>
   <polygon class="fil1" points="1167,24 751,1032 750,1034 745,1046 983,1194 1095,1717 1239,1524 1310,902 "/>
   <polygon class="fil0" points="1590,841 1351,867 1202,32 "/>
   <polygon class="fil0" points="1280,1534 1563,1644 1606,885 1355,909 "/>
   <polygon class="fil0" points="1284,1976 1012,1899 1256,1577 1557,1694 "/>
   <polygon class="fil1" points="1824,1619 2030,1502 2426,607 1645,986 1611,1506 "/>
   <polygon class="fil0" points="2406,758 2288,1667 2077,1523 "/>
   <polygon class="fil0" points="1852,1672 2016,1976 2283,1713 2047,1556 "/>
   <polygon class="fil0" points="1421,1896 1957,1968 1796,1663 1621,1571 1612,1702 "/>
   <polygon class="fil1" points="0,607 115,1499 252,1795 439,1976 620,1664 576,1415 "/>
   <line class="fil2" x1="56" y1="638" x2="750" y2= "1034" />
   <line class="fil2" x1="0" y1="607" x2="56" y2= "638" />
   <path class="fil3" d="M9943 1369l39 22c-26,79 -68,144 -124,194 -57,51 -123,76 -200,76 -63,0 -119,-17 -168,-49 -50,-33 -89,-78 -116,-137 -28,-59 -42,-124 -42,-198 0,-129 34,-225 102,-288 68,-64 147,-95 237,-95 57,0 108,12 154,36 46,24 82,57 108,100 26,42 40,89 40,141l0 46 -473 0c5,84 30,151 74,203 45,52 100,78 166,78 41,0 80,-12 117,-36 37,-25 66,-56 86,-93zm-443 -231l273 0c1,-10 2,-20 2,-29 0,-42 -13,-77 -38,-105 -24,-29 -55,-43 -92,-43 -26,0 -50,8 -70,22 -21,15 -38,36 -52,63 -14,28 -21,58 -23,92z"/>
   <path class="fil3" d="M8692 894l0 108c79,-72 161,-108 244,-108 36,0 70,7 103,23 34,15 61,41 82,77 21,36 32,84 32,142l0 334c0,47 7,77 20,90 14,14 40,21 79,21l0 50 -382 0 0 -50c27,0 46,-3 59,-8 13,-5 22,-15 28,-32 6,-16 9,-39 9,-71l0 -312c0,-95 -37,-142 -111,-142 -24,0 -51,6 -80,18 -29,12 -57,30 -83,53l0 383c0,34 3,59 9,74 6,15 17,25 32,30 15,5 38,7 68,7l0 50 -393 0 0 -50c27,0 48,-3 61,-9 14,-6 23,-16 28,-31 5,-15 8,-38 8,-71l0 -344c0,-52 -6,-87 -18,-104 -13,-16 -33,-25 -62,-25 -4,0 -7,0 -9,1 -3,0 -5,0 -8,0l0 -49 219 -55 65 0z"/>
   <path class="fil3" d="M8311 1272c0,72 -18,138 -54,197 -36,60 -86,106 -150,141 -64,34 -134,51 -210,51 -111,0 -202,-36 -274,-108 -73,-71 -109,-161 -109,-269 0,-56 10,-108 30,-155 21,-47 50,-89 88,-124 37,-36 81,-64 131,-83 49,-19 103,-28 160,-28 56,0 107,9 154,27 48,19 89,45 123,79 36,34 63,75 82,122 19,47 29,97 29,150zm-201 77c0,-80 -8,-150 -26,-208 -17,-58 -42,-103 -76,-134 -33,-30 -73,-46 -119,-46 -57,0 -100,23 -130,68 -30,45 -46,108 -46,191 0,100 19,187 56,262 37,74 94,111 170,111 57,0 100,-20 128,-62 29,-42 43,-103 43,-182z"/>
   <path class="fil3" d="M7415 917l0 93 -209 0 0 433c0,30 8,54 23,73 15,18 37,27 65,27 50,0 84,-26 102,-78l35 0c-9,59 -34,107 -75,143 -41,35 -91,53 -150,53 -54,0 -98,-16 -133,-48 -36,-32 -53,-80 -53,-144l0 -459 -55 0 0 -50c38,-24 75,-58 108,-104 34,-45 63,-99 88,-160l45 0 0 221 209 0z"/>
   <path class="fil3" d="M6804 911l0 229 -50 0c-15,-56 -42,-101 -78,-134 -36,-33 -78,-50 -126,-50 -32,0 -58,7 -77,20 -20,13 -29,30 -29,52 0,16 6,32 19,47 9,8 21,17 38,27 16,9 48,28 97,55 49,27 90,52 124,72 34,21 57,39 71,53 29,29 48,56 58,79 10,24 15,51 15,82 0,42 -11,79 -31,113 -20,33 -49,59 -86,77 -38,19 -80,28 -128,28 -26,0 -51,-2 -75,-7 -24,-4 -52,-10 -84,-17 -31,-8 -52,-12 -61,-12 -14,0 -30,5 -49,16l-35 0 0 -255 50 0c14,60 44,110 89,149 46,39 98,58 155,58 30,0 53,-7 72,-23 18,-16 27,-37 27,-63 0,-26 -10,-49 -29,-68 -17,-17 -37,-32 -61,-47 -25,-14 -53,-30 -87,-49 -33,-17 -62,-34 -87,-50 -26,-16 -48,-34 -67,-54 -43,-40 -64,-88 -64,-142 0,-39 10,-74 30,-104 20,-31 48,-55 83,-73 36,-17 75,-26 118,-26 35,0 74,4 117,11 40,9 70,14 89,14 10,0 18,-3 25,-8l27 0z"/>
   <path class="fil4" d="M6208 1038c-3,0 -39,-8 -107,-24 24,34 36,74 36,119 0,47 -13,89 -39,127 -26,38 -63,67 -110,88 -47,21 -99,32 -159,32 -36,0 -74,-5 -113,-14 -34,33 -51,58 -51,76 0,18 10,32 31,42 20,10 54,17 100,20l193 13c64,4 116,22 157,54 41,31 62,78 62,139 0,51 -17,97 -49,137 -33,40 -78,72 -135,95 -57,23 -122,34 -195,34 -71,0 -133,-8 -185,-25 -53,-16 -92,-38 -118,-63 -26,-26 -39,-53 -39,-81 0,-55 43,-117 127,-186 -26,-11 -46,-25 -60,-44 -15,-18 -23,-38 -23,-60 0,-53 40,-111 120,-172 -46,-21 -82,-49 -106,-85 -24,-36 -36,-77 -36,-122 0,-49 14,-93 40,-132 27,-38 65,-68 114,-90 48,-21 104,-32 168,-32 68,0 128,14 180,40 23,0 58,-6 104,-17 44,-9 73,-13 87,-13 12,0 20,2 24,7 3,6 5,16 5,33l0 57c0,18 -2,30 -5,37 -3,7 -9,10 -18,10zm-218 632l-316 -29c-15,11 -27,28 -37,49 -10,21 -15,41 -15,59 0,26 11,48 31,67 21,20 51,34 89,45 39,11 85,16 138,16 72,0 129,-11 171,-33 43,-22 64,-52 64,-89 0,-49 -42,-78 -125,-85zm-34 -507c0,-59 -10,-111 -32,-155 -21,-44 -57,-66 -107,-66 -39,0 -69,15 -92,45 -24,30 -35,69 -35,117 0,45 6,84 18,118 12,33 29,58 52,76 22,18 47,27 75,27 39,0 69,-14 90,-42 21,-29 31,-69 31,-120z"/>
   <path class="fil4" d="M4845 894l0 108c80,-72 161,-108 244,-108 36,0 71,7 104,23 33,15 60,41 81,77 21,36 32,84 32,142l0 334c0,47 7,77 21,90 13,14 39,21 78,21l0 50 -381 0 0 -50c26,0 45,-3 58,-8 13,-5 23,-15 29,-32 6,-16 9,-39 9,-71l0 -312c0,-95 -37,-142 -111,-142 -25,0 -52,6 -81,18 -29,12 -57,30 -83,53l0 383c0,34 3,59 9,74 6,15 17,25 33,30 15,5 38,7 68,7l0 50 -394 0 0 -50c27,0 48,-3 62,-9 13,-6 22,-16 28,-31 5,-15 7,-38 7,-71l0 -344c0,-52 -6,-87 -18,-104 -12,-16 -33,-25 -61,-25 -4,0 -8,0 -10,1 -2,0 -5,0 -8,0l0 -49 220 -55 64 0z"/>
   <path class="fil4" d="M4305 574c31,0 57,10 79,32 22,22 32,48 32,79 0,31 -11,57 -33,79 -22,22 -48,32 -78,32 -31,0 -57,-10 -79,-32 -22,-22 -32,-48 -32,-79 0,-31 10,-57 32,-79 21,-22 47,-32 79,-32z"/>
   <path class="fil4" d="M4495 1631l-400 0 0 -50c5,0 13,1 23,1 23,0 41,-4 54,-10 13,-7 22,-18 27,-34 5,-16 7,-38 7,-68l0 -354c0,-82 -23,-123 -69,-123 -11,0 -22,1 -32,5l-10 -49 232 -55 66 0 0 576c0,33 3,57 9,72 5,15 15,26 29,31 14,5 35,8 64,8l0 50z"/>
   <polygon class="fil4" points="2706,1756 5406,1756 5406,1804 2706,1804 "/>
   <polygon class="fil3" points="6287,1756 10000,1756 10000,1780 10000,1804 6287,1804 6287,1780 6287,1768 "/>
   <polygon class="fil4" points="4521,744 7014,744 7014,793 4521,793 "/>
   <polygon class="fil3" points="7358,744 10000,744 10000,769 10000,793 7358,793 7358,769 7358,757 "/>
   <path class="fil4" d="M2738 593l560 0 0 48 -22 0c-40,0 -71,5 -92,14 -22,9 -37,25 -46,49 -10,23 -14,56 -14,98l0 296 335 -293c32,-28 53,-50 65,-67 13,-17 19,-32 19,-47 0,-18 -7,-31 -20,-39 -12,-7 -35,-11 -66,-11l-21 0 0 -48 439 0 0 48c-25,1 -50,6 -75,14 -25,9 -52,22 -80,41 -29,19 -59,41 -89,69l-308 265 408 383c64,59 118,102 163,127 44,26 88,39 130,41l0 50 -579 0 0 -50c43,0 71,-3 86,-8 14,-6 21,-16 21,-30 0,-9 -4,-19 -13,-29 -8,-10 -27,-29 -56,-55l-359 -334 0 295c0,42 4,75 13,98 9,24 24,40 46,49 21,9 52,14 93,14l22 0 0 50 -560 0 0 -50 25 0c39,0 69,-5 90,-14 20,-9 35,-25 44,-49 9,-23 13,-56 13,-98l0 -618c0,-43 -4,-76 -14,-99 -9,-23 -24,-40 -46,-49 -21,-8 -50,-13 -87,-13l-25 0 0 -48z"/>
  </g>
 </g>
</svg>
